<?xml version="1.0" encoding="utf-8"?>
<!-- Generator: Adobe Illustrator 22.0.1, SVG Export Plug-In . SVG Version: 6.00 Build 0)  -->
<svg version="1.1" id="Layer_1" xmlns="http://www.w3.org/2000/svg" xmlns:xlink="http://www.w3.org/1999/xlink" x="0px" y="0px"
	 viewBox="0 0 640 1136" style="enable-background:new 0 0 640 1136;" xml:space="preserve">
<style type="text/css">
	.st0{fill:#5FAAC4;}
	.st1{fill:url(#SVGID_1_);}
</style>
<g>
	<path class="st0" d="M767.3,1142.9c-281.9,0-563.7,0-845.6,0c-0.3-116.9-9-233.5-13.3-350.3c-5.4-148.1-0.4-295.8,13.3-443.3
		C43.4,426,215.2,439.2,352,396.4c126.2-39.4,303.4-99,415.3,2.3C749.5,528,746,657.5,751.7,787.7
		C756.9,906.1,766.9,1024.3,767.3,1142.9z"/>
</g>
<g>
	<linearGradient id="SVGID_1_" gradientUnits="userSpaceOnUse" x1="336.7193" y1="1141" x2="336.7193" y2="339.6788">
		<stop  offset="0" style="stop-color:#BCD6EC"/>
		<stop  offset="0" style="stop-color:#B3D3EB"/>
		<stop  offset="0" style="stop-color:#99CAE7"/>
		<stop  offset="0" style="stop-color:#70BBE1"/>
		<stop  offset="0" style="stop-color:#37A8D9"/>
		<stop  offset="0" style="stop-color:#109AD4"/>
		<stop  offset="0.1349" style="stop-color:#0E9AD3"/>
		<stop  offset="0.5164" style="stop-color:#0779BE"/>
		<stop  offset="0.9944" style="stop-color:#00639A"/>
	</linearGradient>
	<path class="st1" d="M740.9,1141c-262.4,0-524.7,0-787.1,0c-0.4-99.3-12-197.5-18.1-296.4c-8.8-144.2,2.1-288.3,18.1-431.7
		c63.1,56.7,135.4,89.1,220.9,73.4c68.2-12.5,131.2-45.9,194.1-73.4c60.8-26.5,122.6-56.7,188.3-69.2c75-14.2,136.7,8.8,183.8,69.2
		C721,537.2,718,662.3,724,787.8C729.6,905.6,740.5,1023,740.9,1141z"/>
</g>
</svg>
